<?xml version="1.0" encoding="utf-8"?>
<!-- Generator: Adobe Illustrator 21.0.0, SVG Export Plug-In . SVG Version: 6.00 Build 0)  -->
<svg version="1.1" id="Layer_1" xmlns="http://www.w3.org/2000/svg" xmlns:xlink="http://www.w3.org/1999/xlink" x="0px" y="0px"
	 viewBox="0 0 52.2 44.3" style="enable-background:new 0 0 52.2 44.3;" xml:space="preserve">
<style type="text/css">
	.st0{fill:#2042E3;}
</style>
<path class="st0" d="M26.5,16.9c0-0.2,0-0.4-0.1-0.5c-0.2-0.4-0.3-0.7-0.5-1c-0.1-0.1-0.2-0.2-0.4-0.2c-0.1,0-0.3,0-0.4,0.1
	c-0.8,0.6-1.7,1-2.8,1c-0.2,0-0.3,0-0.4,0.1c-0.1,0-0.2,0.1-0.2,0.2v0.3c0,0.5,0.1,1,0.3,1.5c0.2,0.5,0.5,1,0.9,1.3
	c0.4,0.3,0.8,0.5,1.2,0.5c0.6,0,1.1-0.3,1.6-0.9c0.4-0.5,0.7-1.2,0.8-1.9C26.5,17.3,26.5,17.1,26.5,16.9z M26.5,16.9
	c0-0.2,0-0.4-0.1-0.5c-0.2-0.4-0.3-0.7-0.5-1c-0.1-0.1-0.2-0.2-0.4-0.2c-0.1,0-0.3,0-0.4,0.1c-0.8,0.6-1.7,1-2.8,1
	c-0.2,0-0.3,0-0.4,0.1c-0.1,0-0.2,0.1-0.2,0.2v0.3c0,0.5,0.1,1,0.3,1.5c0.2,0.5,0.5,1,0.9,1.3c0.4,0.3,0.8,0.5,1.2,0.5
	c0.6,0,1.1-0.3,1.6-0.9c0.4-0.5,0.7-1.2,0.8-1.9C26.5,17.3,26.5,17.1,26.5,16.9z M32.5,15.6c-0.8-1.5-2-2.6-3.4-3.5
	c-1.5-0.9-3.1-1.3-4.8-1.3s-3.3,0.4-4.8,1.3c-1.5,0.9-2.6,2-3.5,3.5c-0.9,1.5-1.3,3.1-1.3,4.8c0,1.7,0.4,3.3,1.3,4.8
	c0.8,1.5,2,2.6,3.5,3.5c1.5,0.9,3.1,1.3,4.8,1.3c1.2,0,2.3-0.2,3.3-0.6c1.1-0.4,2-1,2.9-1.7c0.5-0.4,1-0.9,1.4-1.5
	c0.6-0.8,1.1-1.7,1.5-2.7c0.3-1,0.5-2,0.5-3.1C33.8,18.7,33.3,17.1,32.5,15.6z M23.3,25.5c0,0.2-0.1,0.3-0.2,0.4
	c-0.1,0.1-0.3,0.2-0.4,0.2h-3c-0.2,0-0.4-0.1-0.5-0.2c-0.1-0.1-0.2-0.3-0.2-0.5v-1.8c0-0.7,0.2-1.3,0.7-1.9c0.5-0.5,1-0.9,1.8-1.1
	l0.4-0.1c0.1,0,0.3,0,0.4,0c0.2,0,0.3,0.1,0.4,0.2l1,0.8h0l-0.1,0.1c0,0,0,0,0,0.1l-0.1,0.7c0,0.1,0,0.2,0.1,0.3
	c0.2,0.2,0.2,0.4,0.2,0.7L23.3,25.5z M24.1,20.8c-0.5,0-0.9-0.2-1.3-0.5c-0.4-0.3-0.8-0.7-1.1-1.2c-0.1-0.1-0.2-0.3-0.4-0.5L21,18.3
	c-0.2-0.2-0.3-0.4-0.3-0.8c0-0.3,0-0.5,0.1-0.6c0-0.1,0.1-0.2,0.2-0.4c0.1-0.3,0.2-0.5,0.3-0.6c0.1-0.8,0.3-1.4,0.7-1.8
	c0.3-0.3,0.6-0.6,1-0.8c0.7-0.4,1.3-0.5,1.9-0.4c0.4,0.1,0.8,0.3,1.1,0.6c0.1,0.1,0.3,0.3,0.6,0.5l0.2,0.2c0.5,0.4,0.7,1,0.6,1.8
	c0,0.2,0,0.4,0.1,0.8l0,0.1c0.1,0.1,0.1,0.3,0,0.5c0,0.3-0.1,0.6-0.3,0.7c0,0-0.1,0.2-0.3,0.3c-0.2,0.2-0.3,0.4-0.4,0.5
	c-0.3,0.5-0.6,0.9-1,1.2C25.1,20.6,24.6,20.8,24.1,20.8z M29.3,25.4c0,0.2-0.1,0.3-0.2,0.5c-0.1,0.1-0.3,0.2-0.5,0.2h-3
	c-0.2,0-0.3-0.1-0.4-0.2c-0.1-0.1-0.2-0.2-0.2-0.4l-0.3-2c0-0.2,0-0.5,0.2-0.7c0.1-0.1,0.1-0.2,0.1-0.3l-0.2-0.8l-0.1-0.1h0l1-0.8
	c0.1-0.1,0.3-0.2,0.4-0.2c0.2,0,0.3-0.1,0.4,0l0.4,0.1c0.7,0.1,1.3,0.5,1.8,1.1c0.5,0.5,0.7,1.2,0.7,1.9V25.4z M26.5,17.4
	c0-0.1,0-0.3,0-0.5c0-0.2,0-0.4-0.1-0.5c-0.2-0.4-0.3-0.7-0.5-1c-0.1-0.1-0.2-0.2-0.4-0.2c-0.1,0-0.3,0-0.4,0.1
	c-0.8,0.6-1.7,1-2.8,1c-0.2,0-0.3,0-0.4,0.1c-0.1,0-0.2,0.1-0.2,0.2v0.3c0,0.5,0.1,1,0.3,1.5c0.2,0.5,0.5,1,0.9,1.3
	c0.4,0.3,0.8,0.5,1.2,0.5c0.6,0,1.1-0.3,1.6-0.9C26.1,18.8,26.4,18.1,26.5,17.4z"/>
<path class="st0" d="M44.5,0.6h-37c-1.6,0-3,1.3-3,3v37.1c0,1.6,1.3,3,3,3h37.1c1.6,0,3-1.3,3-3v-37C47.6,2,46.2,0.6,44.5,0.6z
	 M40.4,34.5l-1.8,1.8c-0.1,0.1-0.3,0.2-0.4,0.2c-0.2,0-0.3-0.1-0.4-0.2l-0.5-0.5c-0.2-0.3-0.4-0.4-0.5-0.5l-4.6-4.6
	c-0.1-0.1-0.2-0.1-0.4-0.2c-0.2,0-0.3,0-0.4,0.1c-1,0.7-2.2,1.3-3.4,1.7c-1.3,0.4-2.5,0.6-3.8,0.6c-2.3,0-4.4-0.6-6.3-1.7
	c-1.9-1.1-3.4-2.6-4.5-4.5c-1.1-1.9-1.7-4.1-1.7-6.3c0-2.3,0.6-4.4,1.7-6.3c1.1-1.9,2.6-3.4,4.5-4.5c2-1.1,4.1-1.7,6.3-1.7
	c2.3,0,4.4,0.6,6.3,1.7c1.9,1.1,3.4,2.6,4.5,4.5c1.1,2,1.7,4.1,1.7,6.3c0,2.5-0.7,4.7-2,6.8c-0.1,0.1-0.1,0.3-0.1,0.5
	c0,0.2,0.1,0.3,0.2,0.4l5.6,5.6c0.1,0.1,0.2,0.2,0.2,0.4C40.6,34.2,40.5,34.3,40.4,34.5z"/>
</svg>
