<?xml version="1.0" encoding="UTF-8"?>
<!DOCTYPE svg PUBLIC "-//W3C//DTD SVG 1.1//EN" "http://www.w3.org/Graphics/SVG/1.1/DTD/svg11.dtd">
<svg xmlns="http://www.w3.org/2000/svg" version="1.1" width="401px" height="96px" style="shape-rendering:geometricPrecision; text-rendering:geometricPrecision; image-rendering:optimizeQuality; fill-rule:evenodd; clip-rule:evenodd" xmlns:xlink="http://www.w3.org/1999/xlink">
<g><path style="opacity:1" fill="#fcfcfc" d="M -0.5,-0.5 C 5.83333,-0.5 12.1667,-0.5 18.5,-0.5C 12.6568,31.0505 6.32348,62.3838 -0.5,93.5C -0.5,62.1667 -0.5,30.8333 -0.5,-0.5 Z"/></g>
<g><path style="opacity:1" fill="#010101" d="M 18.5,-0.5 C 56.8333,-0.5 95.1667,-0.5 133.5,-0.5C 126.74,31.3859 120.407,63.3859 114.5,95.5C 76.1667,95.5 37.8333,95.5 -0.5,95.5C -0.5,94.8333 -0.5,94.1667 -0.5,93.5C 6.32348,62.3838 12.6568,31.0505 18.5,-0.5 Z"/></g>
<g><path style="opacity:1" fill="#edeef3" d="M 133.5,-0.5 C 134.833,-0.5 136.167,-0.5 137.5,-0.5C 131.423,31.5526 125.089,63.5526 118.5,95.5C 117.167,95.5 115.833,95.5 114.5,95.5C 120.407,63.3859 126.74,31.3859 133.5,-0.5 Z"/></g>
<g><path style="opacity:1" fill="#1c48cf" d="M 137.5,-0.5 C 224.833,-0.5 312.167,-0.5 399.5,-0.5C 392.403,31.3203 386.069,63.3203 380.5,95.5C 293.167,95.5 205.833,95.5 118.5,95.5C 125.089,63.5526 131.423,31.5526 137.5,-0.5 Z"/></g>
<g><path style="opacity:1" fill="#fbfcfe" d="M 399.5,-0.5 C 399.833,-0.5 400.167,-0.5 400.5,-0.5C 400.5,31.5 400.5,63.5 400.5,95.5C 393.833,95.5 387.167,95.5 380.5,95.5C 386.069,63.3203 392.403,31.3203 399.5,-0.5 Z"/></g>
<g><path style="opacity:1" fill="#f4f4f4" d="M 56.5,9.5 C 64.9996,8.93402 73.333,9.76735 81.5,12C 82.4777,18.4102 82.811,24.9102 82.5,31.5C 89.1667,31.5 95.8333,31.5 102.5,31.5C 105.306,41.9099 105.139,52.2432 102,62.5C 95.5898,63.4777 89.0898,63.811 82.5,63.5C 82.5,70.1667 82.5,76.8333 82.5,83.5C 72.0766,86.2707 61.7433,86.1041 51.5,83C 50.5223,76.5898 50.189,70.0898 50.5,63.5C 44.1579,63.6662 37.8246,63.4995 31.5,63C 27.5785,52.6264 27.5785,42.2931 31.5,32C 37.8246,31.5005 44.1579,31.3338 50.5,31.5C 50.3338,25.1579 50.5005,18.8246 51,12.5C 52.8761,11.3913 54.7095,10.3913 56.5,9.5 Z"/></g>
<g><path style="opacity:1" fill="#090909" d="M 59.5,15.5 C 65.1956,15.447 70.8623,15.7803 76.5,16.5C 76.6664,25.1731 76.4998,33.8397 76,42.5C 75.5,43 75,43.5 74.5,44C 67.726,44.0779 61.0594,44.7446 54.5,46C 51.1295,48.6973 49.7962,52.1973 50.5,56.5C 45.5,56.5 40.5,56.5 35.5,56.5C 34.2258,50.492 34.2258,44.492 35.5,38.5C 45.8333,38.5 56.1667,38.5 66.5,38.5C 66.5,36.1667 66.5,33.8333 66.5,31.5C 63.5,31.5 60.5,31.5 57.5,31.5C 56.9634,25.8652 57.6301,20.5318 59.5,15.5 Z"/></g>
<g><path style="opacity:1" fill="#dfdfdf" d="M 62.5,20.5 C 67.1225,19.4082 68.9558,21.0748 68,25.5C 62.4205,27.7516 60.5871,26.0849 62.5,20.5 Z"/></g>
<g><path style="opacity:1" fill="#f9fafd" d="M 147.5,62.5 C 147.5,60.1667 147.5,57.8333 147.5,55.5C 151.042,55.8128 154.375,55.4794 157.5,54.5C 158.117,54.3893 158.617,54.056 159,53.5C 159.5,45.8406 159.666,38.1739 159.5,30.5C 156.833,30.5 154.167,30.5 151.5,30.5C 151.5,27.5 151.5,24.5 151.5,21.5C 157.5,21.5 163.5,21.5 169.5,21.5C 169.667,33.1714 169.5,44.8381 169,56.5C 168.167,59.3333 166.333,61.1667 163.5,62C 158.177,62.4994 152.844,62.666 147.5,62.5 Z"/></g>
<g><path style="opacity:1" fill="#6b88e0" d="M 222.5,22.5 C 219.167,22.5 215.833,22.5 212.5,22.5C 212.5,35.8333 212.5,49.1667 212.5,62.5C 211.504,49.0102 211.171,35.3435 211.5,21.5C 215.371,21.185 219.038,21.5184 222.5,22.5 Z"/></g>
<g><path style="opacity:1" fill="#6481de" d="M 326.5,22.5 C 317.5,22.5 308.5,22.5 299.5,22.5C 299.5,35.8333 299.5,49.1667 299.5,62.5C 298.504,49.0102 298.171,35.3435 298.5,21.5C 308.015,21.1731 317.348,21.5064 326.5,22.5 Z"/></g>
<g><path style="opacity:1" fill="#fafbfe" d="M 326.5,22.5 C 330.09,22.5441 332.59,24.2108 334,27.5C 334.92,34.276 334.586,40.9427 333,47.5C 330.53,49.4375 327.696,50.6042 324.5,51C 319.511,51.4993 314.511,51.6659 309.5,51.5C 309.5,55.1667 309.5,58.8333 309.5,62.5C 306.167,62.5 302.833,62.5 299.5,62.5C 299.5,49.1667 299.5,35.8333 299.5,22.5C 308.5,22.5 317.5,22.5 326.5,22.5 Z"/></g>
<g><path style="opacity:1" fill="#1e4acf" d="M 309.5,30.5 C 314.179,30.3342 318.845,30.5008 323.5,31C 324.833,34.6667 324.833,38.3333 323.5,42C 318.845,42.4992 314.179,42.6658 309.5,42.5C 309.5,38.5 309.5,34.5 309.5,30.5 Z"/></g>
<g><path style="opacity:1" fill="#f7f8fd" d="M 180.5,31.5 C 187.841,31.3337 195.174,31.5003 202.5,32C 203.667,33.1667 204.833,34.3333 206,35.5C 212.965,57.8502 205.132,67.0169 182.5,63C 180.413,62.2078 178.579,61.0412 177,59.5C 175.402,51.9391 175.069,44.2724 176,36.5C 177.025,34.313 178.525,32.6464 180.5,31.5 Z"/></g>
<g><path style="opacity:1" fill="#8da3e6" d="M 370.5,32.5 C 366.731,32.244 363.064,32.5773 359.5,33.5C 360.871,32.2132 362.705,31.5465 365,31.5C 367.033,31.5056 368.866,31.8389 370.5,32.5 Z"/></g>
<g><path style="opacity:1" fill="#f6f7fc" d="M 250.5,62.5 C 249.791,61.596 248.791,61.2627 247.5,61.5C 247.5,59.5 247.5,57.5 247.5,55.5C 248.833,55.5 250.167,55.5 251.5,55.5C 256.511,55.6659 261.511,55.4993 266.5,55C 267.337,53.9887 267.67,52.8221 267.5,51.5C 262.489,51.6659 257.489,51.4993 252.5,51C 249.943,50.3147 248.109,48.8147 247,46.5C 246.333,43.1667 246.333,39.8333 247,36.5C 248.227,34.2739 250.061,32.7739 252.5,32C 259.826,31.5003 267.159,31.3337 274.5,31.5C 274.5,34.1667 274.5,36.8333 274.5,39.5C 268.824,39.3339 263.157,39.5006 257.5,40C 256.167,41 256.167,42 257.5,43C 262.5,43.3333 267.5,43.6667 272.5,44C 277.275,47.6551 278.775,52.4884 277,58.5C 275.833,59.6667 274.667,60.8333 273.5,62C 265.841,62.4997 258.174,62.6664 250.5,62.5 Z"/></g>
<g><path style="opacity:1" fill="#f8f9fd" d="M 359.5,33.5 C 363.064,32.5773 366.731,32.244 370.5,32.5C 366.218,45.0611 361.385,57.3945 356,69.5C 355.097,70.7014 353.931,71.5348 352.5,72C 348.514,72.4988 344.514,72.6655 340.5,72.5C 340.5,69.8333 340.5,67.1667 340.5,64.5C 342.857,64.6633 345.19,64.4966 347.5,64C 348.022,63.4387 348.355,62.772 348.5,62C 344.598,52.1265 340.598,42.2932 336.5,32.5C 340.045,31.2086 343.545,31.2086 347,32.5C 349.333,38.5 351.667,44.5 354,50.5C 355.946,44.8308 357.779,39.1641 359.5,33.5 Z"/></g>
<g><path style="opacity:1" fill="#080808" d="M 58.5,78.5 C 57.5301,69.9177 57.1968,61.2511 57.5,52.5C 57.6107,51.8826 57.944,51.3826 58.5,51C 65.2464,50.8787 71.913,50.212 78.5,49C 81.8705,46.3027 83.2038,42.8027 82.5,38.5C 87.544,38.1725 92.544,38.5059 97.5,39.5C 98.8333,44.8333 98.8333,50.1667 97.5,55.5C 87.1881,56.4986 76.8548,56.8319 66.5,56.5C 66.5,58.8333 66.5,61.1667 66.5,63.5C 69.8333,63.5 73.1667,63.5 76.5,63.5C 76.5,68.5 76.5,73.5 76.5,78.5C 70.4622,79.4713 64.4622,79.4713 58.5,78.5 Z"/></g>
<g><path style="opacity:1" fill="#214acf" d="M 185.5,39.5 C 189.167,39.5 192.833,39.5 196.5,39.5C 196.666,44.5111 196.499,49.5111 196,54.5C 192.667,55.8333 189.333,55.8333 186,54.5C 185.501,49.5111 185.334,44.5111 185.5,39.5 Z"/></g>
<g><path style="opacity:1" fill="#f8f9fb" d="M 222.5,22.5 C 222.335,25.8499 222.502,29.1832 223,32.5C 227.748,31.3651 232.581,31.1985 237.5,32C 238.931,32.4652 240.097,33.2986 241,34.5C 242.598,42.0609 242.931,49.7276 242,57.5C 241.07,59.5524 239.57,61.0524 237.5,62C 229.173,62.4997 220.84,62.6664 212.5,62.5C 212.5,49.1667 212.5,35.8333 212.5,22.5C 215.833,22.5 219.167,22.5 222.5,22.5 Z"/></g>
<g><path style="opacity:1" fill="#1b48cf" d="M 222.5,39.5 C 225.833,39.5 229.167,39.5 232.5,39.5C 232.666,44.1785 232.499,48.8452 232,53.5C 228.943,54.4505 225.777,54.7839 222.5,54.5C 222.5,49.5 222.5,44.5 222.5,39.5 Z"/></g>
<g><path style="opacity:1" fill="#828282" d="M 57.5,52.5 C 57.1968,61.2511 57.5301,69.9177 58.5,78.5C 57.1745,74.5549 56.5079,70.2216 56.5,65.5C 56.5009,60.9866 56.8343,56.6533 57.5,52.5 Z"/></g>
<g><path style="opacity:1" fill="#8ca2e7" d="M 157.5,54.5 C 154.375,55.4794 151.042,55.8128 147.5,55.5C 147.5,57.8333 147.5,60.1667 147.5,62.5C 146.527,60.0521 146.194,57.3854 146.5,54.5C 150.167,54.5 153.833,54.5 157.5,54.5 Z"/></g>
<g><path style="opacity:1" fill="#bdcaf1" d="M 251.5,55.5 C 250.167,55.5 248.833,55.5 247.5,55.5C 247.5,57.5 247.5,59.5 247.5,61.5C 248.791,61.2627 249.791,61.596 250.5,62.5C 249.167,62.5 247.833,62.5 246.5,62.5C 246.5,59.8333 246.5,57.1667 246.5,54.5C 248.415,54.2155 250.081,54.5489 251.5,55.5 Z"/></g>
<g><path style="opacity:1" fill="#ededed" d="M 65.5,68.5 C 70.6673,67.4919 72.334,69.3252 70.5,74C 68.8659,74.4935 67.1992,74.6602 65.5,74.5C 65.5,72.5 65.5,70.5 65.5,68.5 Z"/></g>
</svg>
